<?xml version="1.0" encoding="UTF-8"?>
<svg width="249px" height="336px" viewBox="0 0 249 336" version="1.1" xmlns="http://www.w3.org/2000/svg" xmlns:xlink="http://www.w3.org/1999/xlink">
    <title>ChickWink</title>
    <g id="Design" stroke="none" stroke-width="1" fill="none" fill-rule="evenodd">
        <g id="Onboarding-1" transform="translate(-77, -269)">
            <g id="ChickWink" transform="translate(77, 269)">
                <path d="M87.4579833,262.894373 C85.3055627,264.238373 74.7303804,272.006237 68.7659096,296.790508 C56.8709536,299.956881 47.2417035,313.977763 46.0578721,315.754576 C44.3216728,318.371395 45.0241387,321.90783 47.6268735,323.653424 C50.2296083,325.399018 53.7470094,324.692751 55.4832087,322.075932 C57.944163,318.493291 60.8317207,315.226733 64.0815626,312.349017 C62.757313,318.241723 62.0867241,324.263841 62.0820772,330.305085 C62.0820772,333.450299 64.6180552,336 67.7463419,336 C70.8746287,336 73.4106067,333.450299 73.4106067,330.305085 C73.4001986,323.542379 74.3792673,316.814914 76.3163745,310.338712 C78.1596747,314.867405 79.0970397,319.716991 79.0748715,324.610169 C79.0748715,327.755384 81.6108495,330.305085 84.7391362,330.305085 C87.867423,330.305085 90.403401,327.755384 90.403401,324.610169 C90.403401,314.17139 87.5712686,302.4 80.134089,297.952271 C85.2715771,278.020068 93.3544829,272.621288 93.4394469,272.570034 C95.1595471,271.495767 96.1789544,269.580474 96.1136687,267.54563 C96.0483829,265.510786 94.9083222,263.665529 93.1229369,262.704952 C91.337551,261.744375 89.1780835,261.814411 87.4579833,262.888678 L87.4579833,262.894373 Z" id="Shape" fill="#E57E25"></path>
                <path d="M202.7371,315.754576 C201.558933,313.977763 191.924018,299.956881 180.029062,296.790508 C174.047599,272.006237 163.472417,264.238373 161.336989,262.894373 C158.677945,261.2337 155.183368,262.054703 153.531632,264.728136 C151.879897,267.401568 152.696481,270.915055 155.355525,272.575729 C155.440489,272.626983 163.523395,278.048542 168.660883,297.957966 C161.206711,302.4 158.374578,314.17139 158.374578,324.610169 C158.374578,327.755384 160.910556,330.305085 164.038843,330.305085 C167.16713,330.305085 169.703108,327.755384 169.703108,324.610169 C169.686344,319.715295 170.631487,314.865306 172.484262,310.338712 C174.416602,316.81542 175.388096,323.543297 175.367373,330.305085 C175.367373,333.450299 177.903351,336 181.031637,336 C184.159924,336 186.695902,333.450299 186.695902,330.305085 C186.697854,324.272257 186.034865,318.25779 184.719074,312.371797 C187.960359,315.239506 190.845461,318.490141 193.311763,322.053153 C195.049527,324.669971 198.568196,325.374963 201.170931,323.627797 C203.773665,321.88063 204.474863,318.34292 202.7371,315.726102 L202.7371,315.754576 Z" id="Shape" fill="#E57E25"></path>
                <path d="M11.5568354,153.990508 C15.5784634,99.4332203 50.1871211,48.4067797 96.1243084,33.1444068 L145.097542,30.9917288 C194.744822,42.9510508 233.035252,96.5402034 237.277786,154.047458 L196.834936,254.505763 C176.166315,270.734609 150.611583,279.392693 124.38899,279.050847 C98.245473,279.397948 72.7604901,270.803437 52.1129712,254.67661 L11.5568354,153.990508 Z" id="Shape" fill="#FFE068"></path>
                <path d="M169.703108,39.8644068 C169.703108,39.8644068 169.703108,0 136.13101,0 C124.955416,0 124.955416,17.0847458 124.955416,17.0847458 C124.955416,17.0847458 102.570242,11.3898305 96.9739481,28.4745763 C95.2204623,35.3715605 96.7679275,42.6961743 101.158443,48.2810343 C105.548958,53.8658943 112.27974,57.0714457 119.359122,56.9491525 C136.13101,56.9491525 136.13101,28.4745763 169.703108,39.8644068 Z" id="Shape" fill="#F29C1F"></path>
                <path d="M52.7700259,201.856271 C61.3853726,227.716881 52.515134,255.04678 48.8560189,264.449085 C48.5265095,265.335821 47.8164654,266.025616 46.9237136,266.326284 C46.0309619,266.626952 45.0509186,266.506358 44.2566359,265.998102 C35.7035961,260.701831 12.25354,244.254915 3.64385755,218.394305 C-4.9658249,192.533695 3.90441373,165.203797 7.5578645,155.801492 C7.88737393,154.914755 8.59741801,154.224961 9.4901698,153.924293 C10.3829215,153.623624 11.3629648,153.744218 12.1572475,154.252475 C20.7329444,159.543051 44.1603434,175.972881 52.7700259,201.856271 L52.7700259,201.856271 Z" id="Shape" fill="#F9A934"></path>
                <path d="M196.22886,201.856271 C187.613513,227.716881 196.489416,255.04678 200.142867,264.449085 C200.472376,265.335821 201.18242,266.025616 202.075172,266.326284 C202.967924,266.626952 203.947967,266.506358 204.74225,265.998102 C213.295289,260.701831 236.745346,244.254915 245.355028,218.394305 C253.96471,192.533695 245.100136,165.203797 241.441021,155.801492 C241.111512,154.914755 240.401468,154.224961 239.508716,153.924293 C238.615964,153.623624 237.635921,153.744218 236.841638,154.252475 C228.288598,159.543051 204.821549,175.972881 196.22886,201.856271 L196.22886,201.856271 Z" id="Shape" fill="#F9A934"></path>
                <path d="M169.703108,113.898305 C166.574821,113.898305 164.038843,111.348604 164.038843,108.20339 C164.038843,105.058175 161.502865,102.508475 158.374578,102.508475 C155.246291,102.508475 152.710313,105.058175 152.710313,108.20339 C152.710313,111.348604 150.174335,113.898305 147.046049,113.898305 C143.917762,113.898305 141.381784,111.348604 141.381784,108.20339 C141.381784,98.7677456 148.989717,91.1186441 158.374578,91.1186441 C167.759439,91.1186441 175.367373,98.7677456 175.367373,108.20339 C175.367373,111.348604 172.831395,113.898305 169.703108,113.898305 Z" id="Shape" fill="#35495E"></path>
                <path d="M79.2278066,103.886644 C72.1369582,104.225121 65.5657977,100.155274 62.676825,93.6357966 C61.2784806,90.8208296 62.414599,87.3991315 65.2144156,85.9932203 C68.0142328,84.5873092 71.4175145,85.7295754 72.8158589,88.5445424 C75.0815648,93.1004746 78.0553038,93.0378305 84.8354287,91.7906441 C86.6677374,91.3999285 88.5311751,91.1750294 90.403401,91.1186441 C93.5316878,91.1186441 96.0676658,93.6683448 96.0676658,96.8135593 C96.0676658,99.9587739 93.5316878,102.508475 90.403401,102.508475 C89.2165466,102.595206 88.0373079,102.766484 86.874564,103.021017 C84.3576389,103.545965 81.7978183,103.835741 79.2278066,103.886644 L79.2278066,103.886644 Z" id="Shape" fill="#2C3E50"></path>
                <path d="M124.38899,176.542373 C141.381784,165.152542 147.046049,142.372881 147.046049,142.372881 L124.38899,130.983051 L101.731931,142.372881 C101.731931,142.372881 107.396195,165.152542 124.38899,176.542373 Z" id="Shape" fill="#E57E25"></path>
                <path d="M90.403401,125.288136 C81.0185401,125.288136 73.4106067,117.639034 73.4106067,108.20339 C73.4106067,98.7677456 81.0185401,91.1186441 90.403401,91.1186441 C99.7882619,91.1186441 107.396195,98.7677456 107.396195,108.20339 C107.396195,117.639034 99.7882619,125.288136 90.403401,125.288136 Z" id="Shape" fill="#35495E"></path>
                <ellipse id="Oval" fill="#ECF0F1" cx="84.7391362" cy="102.508475" rx="5.66426477" ry="5.69491525"></ellipse>
            </g>
        </g>
    </g>
</svg>